<svg fill="#000000" viewBox="0 0 12 26" version="1.1" xmlns="http://www.w3.org/2000/svg" width="32" height="104">
  <g id="SVGRepo_iconCarrier" stroke="red" stroke-width="1" fill="none">
    <path d="M5.499 9.286c0.939-0.619 1.423-1.79 1.116-2.936-0.384-1.432-1.855-2.281-3.287-1.898s-2.281 1.855-1.898 3.287c0.305 1.139 1.299 1.909 2.414 1.983l1.42 5.298-1.72 3.986 6.804 11.77 0.007-13.594-3.424-2.549-1.433-5.346zM2.579 7.447c-0.214-0.8 0.26-1.623 1.061-1.837s1.623 0.26 1.837 1.061c0.214 0.8-0.26 1.623-1.061 1.837s-1.623-0.26-1.837-1.061z" fill="white"></path>
  </g>
  <rect width="12" height="26" fill="transparent"></rect>
</svg>
